# xmcd
#
# Track frame offsets:
#	150
#	43864
#	69242
#	98599
#	155788
#	187130
#	256237
#	287083
#
# Disc length: 4314 seconds
#
# Revision: 0
# Processed by: cddbd v1.5.2PL0 Copyright (c) Steve Scherf et al.
# Submitted via: audiograbber 1.83.01
#
DISCID=7010d808
DTITLE=Mark Knopfler - Live in Belgrado 2013
DYEAR=2013
DGENRE=Folk-Rock
TTITLE0=Song For Sonny Liston
TTITLE1=Done With Bonaparte
TTITLE2=Miss You Blues
TTITLE3=Marbletown
TTITLE4=Speedway At Nazareth
TTITLE5=Telegraph Road
TTITLE6=So Far Away
TTITLE7=Our Shangri-La
EXTD=
EXTT0=
EXTT1=
EXTT2=
EXTT3=
EXTT4=
EXTT5=
EXTT6=
EXTT7=
PLAYORDER=
